#N canvas 159 86 1056 707 10;
#X declare -lib mrpeach;
#X obj 181 624 dac~;
#X text 152 169 control/modulation inputs;
#X text 159 199 v;
#X text 159 196 |;
#X text 159 186 |;
#X text 214 199 v;
#X text 214 196 |;
#X text 214 186 |;
#X text 275 199 v;
#X text 275 196 |;
#X text 275 186 |;
#X obj 108 204 mono-pitchshifter;
#X obj 101 407 st-pureverb4;
#X obj 84 295 st-flanger;
#X text 317 252 resets phase;
#X msg 321 291 bang;
#X msg 316 269 0.25;
#X obj 103 90 syn-bellsynth /key;
#X obj 373 86 r accX;
#X obj 422 81 r accY;
#X obj 479 85 r accZ;
#X obj 614 54 import mrpeach;
#X obj 616 123 unpackOSC;
#X obj 661 269 mtof;
#X obj 614 90 udpreceive 3333;
#X obj 424 40 mtof;
#X obj 837 253 mtof;
#X obj 873 358 * 4;
#X floatatom 701 377 5 0 0 0 - - -;
#X obj 824 128 / 360;
#X obj 376 426 / 256;
#X obj 891 157 * -1;
#X obj 751 62 route /x /y /alpha /gamma /beta;
#X floatatom 946 244 5 0 0 0 - - -;
#X obj 889 129 - 90;
#X obj 886 191 / 90;
#X obj 414 454 line 500;
#X obj 293 499 line~;
#X msg 292 463 \$1 50;
#X obj 229 537 *~;
#X obj 120 539 *~;
#X obj 815 203 / 360;
#X obj 611 413 line;
#X msg 613 351 \$1 50;
#X obj 702 239 exp 3;
#X floatatom 734 290 5 0 0 0 - - -;
#X obj 661 209 / 30;
#X connect 11 0 13 0;
#X connect 11 0 13 1;
#X connect 12 0 40 0;
#X connect 12 1 39 0;
#X connect 13 0 12 0;
#X connect 13 1 12 1;
#X connect 15 0 13 5;
#X connect 16 0 13 5;
#X connect 17 0 11 0;
#X connect 18 0 11 1;
#X connect 19 0 11 2;
#X connect 20 0 11 3;
#X connect 22 0 32 0;
#X connect 23 0 28 0;
#X connect 23 0 43 0;
#X connect 24 0 22 0;
#X connect 25 0 17 1;
#X connect 25 0 13 2;
#X connect 26 0 27 0;
#X connect 29 0 11 1;
#X connect 30 0 36 0;
#X connect 31 0 35 0;
#X connect 32 0 46 0;
#X connect 32 1 25 0;
#X connect 32 1 26 0;
#X connect 32 1 30 0;
#X connect 32 2 29 0;
#X connect 32 3 41 0;
#X connect 32 4 33 0;
#X connect 32 4 34 0;
#X connect 34 0 31 0;
#X connect 35 0 11 2;
#X connect 36 0 38 0;
#X connect 37 0 39 1;
#X connect 37 0 40 1;
#X connect 38 0 37 0;
#X connect 39 0 0 1;
#X connect 40 0 0 0;
#X connect 41 0 11 3;
#X connect 42 0 17 0;
#X connect 43 0 42 0;
#X connect 44 0 23 0;
#X connect 44 0 45 0;
#X connect 46 0 44 0;
